<?xml version="1.0" standalone="no"?>
<!DOCTYPE svg PUBLIC "-//W3C//DTD SVG 1.1//EN" "http://www.w3.org/Graphics/SVG/1.1/DTD/svg11.dtd" >
<svg xmlns="http://www.w3.org/2000/svg" xmlns:xlink="http://www.w3.org/1999/xlink" version="1.1">
<metadata>
Created by FontForge 20170924 at Fri Feb 23 15:53:28 2001
 By www-data
Copyright (c) 1994 Elsner+Flake Designstudios. All Rights Reserved.
</metadata>
<defs>
<font id="QuartzEF" horiz-adv-x="480" >
  <font-face 
    font-family="QuartzEF"
    font-weight="500"
    font-stretch="normal"
    units-per-em="1000"
    panose-1="2 0 6 6 2 0 0 2 0 4"
    ascent="800"
    descent="-200"
    x-height="667"
    cap-height="667"
    bbox="-68 -223 867 893"
    underline-thickness="50"
    underline-position="-125"
    unicode-range="U+0020-201E"
  />
<missing-glyph horiz-adv-x="333" 
 />
    <glyph glyph-name=".notdef" horiz-adv-x="333" 
 />
    <glyph glyph-name=".null" horiz-adv-x="0" 
 />
    <glyph glyph-name="nonmarkingreturn" horiz-adv-x="500" 
 />
    <glyph glyph-name="space" unicode=" " horiz-adv-x="250" 
 />
    <glyph glyph-name="dotlessi" unicode="&#x131;" horiz-adv-x="183" 
d="M130 340v327l-77 -77v-206l77 -44v0zM130 0v327l-77 -45v-205l77 -77v0z" />
    <glyph glyph-name="exclam" unicode="!" horiz-adv-x="210" 
d="M156 227v466l-76 -76v-324l76 -66v0zM156 -10v163l-76 -27v-115l76 -21v0z" />
    <glyph glyph-name="dollar" unicode="$" horiz-adv-x="512" 
d="M296 683v54l-34 38l-33 -38v-54h67v0zM459 667h-293l-38 -39l38 -38h43l53 57l54 -57h66l77 77v0zM296 372v218l-34 37l-33 -37v-218l33 -34l34 34v0zM417 333l-67 39h-26l-39 -39l39 -38h26l67 38v0zM450 90v237l-76 -45v-192l38 -38l38 38v0zM154 384v193l-39 38
l-38 -38v-237l77 44v0zM243 333l-38 39h-28l-67 -39l66 -38h29l38 38v0zM296 77v218l-34 36l-33 -36v-218l33 -36l34 36v0zM399 38l-39 39h-44l-54 -57l-53 57h-79l-77 -77h307l39 38v0zM296 -67v55h-67v-55l33 -34l34 34v0z" />
    <glyph glyph-name="percent" unicode="%" horiz-adv-x="600" 
d="M517 629l-4 43l-31 -15l-191 -304l23 -45l203 321v0zM240 503v157l-38 -38v-96l38 -23v0zM233 667h-173l38 -39h97l38 39v0zM547 170v157l-39 -39v-96l39 -22v0zM540 333h-173l38 -38h97l38 38v0zM92 526v96l-39 38v-157l39 23v0zM240 340v157l-38 -22v-97l38 -38v0z
M398 192v96l-38 39v-157l38 22v0zM547 7v156l-39 -22v-96l39 -38v0zM233 333l-38 39h-97l-38 -39h173v0zM92 378v97l-39 22v-157l39 38v0zM540 0l-38 38h-97l-38 -38h173v0zM398 45v96l-38 22v-156l38 38v0zM310 303l-47 5l-180 -286v-28l40 15l187 294v0z" />
    <glyph glyph-name="ampersand" unicode="&#x26;" horiz-adv-x="607" 
d="M337 667h-180l-45 -46l31 -31h117l77 77v0zM427 380v78l-39 38l-38 -38v-78l38 -23l39 23v0zM553 333l-38 39h-58l-57 -39l57 -38h58l38 38v0zM387 333l-57 39h-38l-59 -39l59 -38h38l57 38v0zM427 100v182l-39 23l-38 -23v-192l33 -33l44 43v0zM130 384v193l-31 31
l-46 -45v-223l77 44v0zM130 90v192l-77 45v-237l39 -38l38 38v0zM370 44l-33 33h-194l-38 -39l38 -38h184l43 44v0z" />
    <glyph glyph-name="parenleft" unicode="(" horiz-adv-x="277" 
d="M277 667h-134l-38 -39l38 -38h57l77 77v0zM130 384v193l-38 38l-39 -38v-237l77 44v0zM130 90v192l-77 45v-237l39 -38l38 38v0zM277 0l-77 77h-57l-38 -39l38 -38h134v0z" />
    <glyph glyph-name="parenright" unicode=")" horiz-adv-x="277" 
d="M172 628l-39 39h-133l77 -77h56l39 38v0zM223 340v237l-38 38l-38 -38v-193l76 -44v0zM223 90v237l-76 -45v-192l38 -38l38 38v0zM172 38l-39 39h-56l-77 -77h133l39 38v0z" />
    <glyph glyph-name="asterisk" unicode="*" horiz-adv-x="447" 
d="M394 542l-35 18l-102 -33l-28 -38l45 -15l102 33l18 35v0zM251 539v107l-28 27l-27 -27v-107l27 -38l28 38v0zM337 376l-63 87l-45 14v-47l63 -87l39 -6l6 39v0zM217 489l-27 38l-102 33l-35 -18l18 -35l102 -33l44 15v0zM217 430v47l-44 -14l-63 -87l6 -39l38 6l63 87v0
z" />
    <glyph glyph-name="comma" unicode="," horiz-adv-x="270" 
d="M216 142h-88l-75 -188l62 -63l101 251v0z" />
    <glyph glyph-name="hyphen" unicode="-" horiz-adv-x="306" 
d="M306 333l-73 39h-162l-71 -39l71 -42h162l73 42v0z" />
    <glyph glyph-name="hyphen" unicode="&#xad;" horiz-adv-x="306" 
d="M306 333l-73 39h-162l-71 -39l71 -42h162l73 42v0z" />
    <glyph glyph-name="period" unicode="." horiz-adv-x="183" 
d="M130 0v160l-77 -28v-115l77 -17v0z" />
    <glyph glyph-name="slash" unicode="/" horiz-adv-x="649" 
d="M596 672l-5 53l-57 -27l-228 -356l36 -72l254 402v0zM338 264l-76 8l-209 -331v-64l51 19l234 368v0z" />
    <glyph glyph-name="zero" unicode="0" 
d="M427 340v313l-77 -76v-193l77 -44v0zM413 667h-346l76 -77h194l76 77v0zM130 384v193l-77 76v-313l77 44v0zM427 13v314l-77 -45v-192l77 -77v0zM413 0l-76 77h-194l-76 -77h346v0zM130 90v192l-77 45v-314l77 77v0z" />
    <glyph glyph-name="one" unicode="1" 
d="M413 667h-203l77 -77h50l76 77v0zM427 340v313l-77 -76v-193l77 -44v0zM427 13v314l-77 -45v-192l77 -77v0z" />
    <glyph glyph-name="two" unicode="2" 
d="M427 340v313l-77 -76v-193l77 -44v0zM413 667h-346l76 -77h194l76 77v0zM397 333l-67 39h-180l-67 -39l67 -38h180l67 38v0zM413 0l-76 77h-194l-76 -77h346v0zM130 90v192l-77 45v-314l77 77v0z" />
    <glyph glyph-name="three" unicode="3" 
d="M427 340v313l-77 -76v-193l77 -44v0zM413 667h-346l76 -77h194l76 77v0zM400 333l-66 39h-174l-67 -39l67 -38h174l66 38v0zM427 13v314l-77 -45v-192l77 -77v0zM413 0l-76 77h-194l-76 -77h346v0z" />
    <glyph glyph-name="four" unicode="4" 
d="M427 340v327l-77 -77v-206l77 -44v0zM130 384v206l-77 77v-327l77 44v0zM393 333l-66 39h-174l-66 -39l66 -38h174l66 38v0zM427 0v327l-77 -45v-205l77 -77v0z" />
    <glyph glyph-name="five" unicode="5" 
d="M413 667h-346l76 -77h194l76 77v0zM130 384v193l-77 76v-313l77 44v0zM393 333l-66 39h-174l-66 -39l66 -38h174l66 38v0zM427 13v314l-77 -45v-192l77 -77v0zM413 0l-76 77h-194l-76 -77h346v0z" />
    <glyph glyph-name="six" unicode="6" 
d="M413 667h-346l76 -77h194l76 77v0zM130 384v193l-77 76v-313l77 44v0zM393 333l-66 39h-174l-66 -39l66 -38h174l66 38v0zM427 13v314l-77 -45v-192l77 -77v0zM413 0l-76 77h-194l-76 -77h346v0zM130 90v192l-77 45v-314l77 77v0z" />
    <glyph glyph-name="seven" unicode="7" horiz-adv-x="467" 
d="M413 340v313l-76 -76v-193l76 -44v0zM400 667h-347l77 -77h193l77 77v0zM413 0v327l-76 -45v-205l76 -77v0z" />
    <glyph glyph-name="eight" unicode="8" 
d="M427 340v313l-77 -76v-193l77 -44v0zM413 667h-346l76 -77h194l76 77v0zM130 384v193l-77 76v-313l77 44v0zM393 333l-66 39h-174l-66 -39l66 -38h174l66 38v0zM427 13v314l-77 -45v-192l77 -77v0zM413 0l-76 77h-194l-76 -77h346v0zM130 90v192l-77 45v-314l77 77v0z
" />
    <glyph glyph-name="nine" unicode="9" 
d="M427 340v313l-77 -76v-193l77 -44v0zM413 667h-346l76 -77h194l76 77v0zM130 384v193l-77 76v-313l77 44v0zM393 333l-66 39h-174l-66 -39l66 -38h174l66 38v0zM427 13v314l-77 -45v-192l77 -77v0zM413 0l-76 77h-194l-76 -77h346v0z" />
    <glyph glyph-name="colon" unicode=":" horiz-adv-x="183" 
d="M130 242v160l-77 -27v-115l77 -18v0zM130 0v160l-77 -28v-115l77 -17v0z" />
    <glyph glyph-name="semicolon" unicode=";" horiz-adv-x="225" 
d="M171 242v160l-76 -27v-115l76 -18v0zM171 153l-86 -21l-58 -190l62 -56l82 267v0z" />
    <glyph glyph-name="semicolon" unicode="&#x37e;" horiz-adv-x="225" 
d="M171 242v160l-76 -27v-115l76 -18v0zM171 153l-86 -21l-58 -190l62 -56l82 267v0z" />
    <glyph glyph-name="question" unicode="?" horiz-adv-x="440" 
d="M387 341v312l-77 -76v-192l77 -44v0zM373 667h-346l76 -77h194l76 77v0zM361 333l-64 39h-134l77 -77h47l74 38v0zM240 190v83l-77 77v-83l77 -77v0zM240 0v169l-77 -38v-93l77 -38v0z" />
    <glyph glyph-name="A" unicode="A" 
d="M427 340v313l-77 -76v-193l77 -44v0zM413 667h-346l76 -77h194l76 77v0zM130 384v193l-77 76v-313l77 44v0zM387 333l-67 39h-160l-67 -39l67 -38h160l67 38v0zM427 0v327l-77 -45v-205l77 -77v0zM130 77v205l-77 45v-327l77 77v0z" />
    <glyph glyph-name="B" unicode="B" 
d="M427 378v199l-39 38l-38 -38v-193l38 -22l39 16v0zM375 628l-38 39h-270l76 -77h194l38 38v0zM130 384v193l-77 76v-313l77 44v0zM400 333l-63 38h-194l-65 -38l65 -39h194l63 39v0zM427 90v198l-39 17l-38 -23v-192l38 -38l39 38v0zM130 90v191l-77 46v-314l77 77v0z
M375 38l-38 39h-194l-76 -77h270l38 38v0z" />
    <glyph glyph-name="C" unicode="C" horiz-adv-x="433" 
d="M413 667h-263l-40 -43l33 -34h194l76 77v0zM130 384v193l-43 33l-34 -40v-230l77 44v0zM413 0l-76 77h-194l-38 -39l38 -38h270v0zM130 90v192l-77 45v-237l39 -38l38 38v0z" />
    <glyph glyph-name="D" unicode="D" 
d="M427 340v237l-39 38l-38 -38v-193l77 -44v0zM375 628l-38 39h-270l76 -77h194l38 38v0zM130 384v193l-77 76v-313l77 44v0zM427 90v237l-77 -45v-192l38 -38l39 38v0zM130 90v192l-77 45v-314l77 77v0zM375 38l-38 39h-194l-76 -77h270l38 38v0z" />
    <glyph glyph-name="E" unicode="E" horiz-adv-x="440" 
d="M413 667h-346l76 -77h194l76 77v0zM130 384v193l-77 76v-313l77 44v0zM393 333l-66 39h-174l-66 -39l66 -38h174l66 38v0zM413 0l-76 77h-194l-76 -77h346v0zM130 90v192l-77 45v-314l77 77v0z" />
    <glyph glyph-name="F" unicode="F" horiz-adv-x="440" 
d="M413 667h-346l76 -77h194l76 77v0zM130 384v193l-77 76v-313l77 44v0zM393 333l-66 39h-174l-66 -39l66 -38h174l66 38v0zM130 77v205l-77 45v-327l77 77v0z" />
    <glyph glyph-name="G" unicode="G" horiz-adv-x="467" 
d="M347 667h-204l-38 -39l38 -38h127l77 77v0zM393 333l-66 39h-34l-66 -39l66 -38h34l66 38v0zM427 104v223l-77 -45v-192l31 -31l46 45v0zM130 384v193l-38 38l-39 -38v-237l77 44v0zM130 90v192l-77 45v-230l42 -42l35 35v0zM368 45l-31 32h-194l-35 -35l42 -42h173
l45 45v0z" />
    <glyph glyph-name="H" unicode="H" 
d="M427 340v327l-77 -77v-206l77 -44v0zM130 384v206l-77 77v-327l77 44v0zM387 333l-67 39h-160l-67 -39l67 -38h160l67 38v0zM427 0v327l-77 -45v-205l77 -77v0zM130 77v205l-77 45v-327l77 77v0z" />
    <glyph glyph-name="I" unicode="I" horiz-adv-x="183" 
d="M130 340v327l-77 -77v-206l77 -44v0zM130 0v327l-77 -45v-205l77 -77v0z" />
    <glyph glyph-name="J" unicode="J" horiz-adv-x="407" 
d="M353 340v327l-76 -77v-206l76 -44v0zM353 13v314l-76 -45v-192l76 -77v0zM340 0l-77 77h-146l-77 -77h300v0zM103 90v66l-76 31v-174l76 77v0z" />
    <glyph glyph-name="K" unicode="K" horiz-adv-x="483" 
d="M436 582v58h-58l-225 -197v-59h58l225 198v0zM130 384v206l-77 77v-327l77 44v0zM393 333l-66 39h-174l-66 -39l66 -38h174l66 38v0zM427 0v327l-77 -45v-205l77 -77v0zM130 77v205l-77 45v-327l77 77v0z" />
    <glyph glyph-name="L" unicode="L" horiz-adv-x="453" 
d="M130 384v206l-77 77v-327l77 44v0zM427 13v154l-77 -45v-32l77 -77v0zM413 0l-76 77h-194l-76 -77h346v0zM130 90v192l-77 45v-314l77 77v0z" />
    <glyph glyph-name="M" unicode="M" horiz-adv-x="773" 
d="M668 628l-38 39h-237l45 -77h192l38 38v0zM720 340v237l-38 38l-39 -38v-193l77 -44v0zM380 667h-237l-38 -39l38 -38h193l44 77v0zM425 393v174l-38 66l-39 -66v-174l39 -66l38 66v0zM720 0v327l-77 -45v-205l77 -77v0zM130 384v193l-38 38l-39 -38v-237l77 44v0z
M425 66v181l-38 66l-39 -66v-181l39 -66l38 66v0zM130 77v205l-77 45v-327l77 77v0z" />
    <glyph glyph-name="N" unicode="N" 
d="M375 628l-38 39h-194l-38 -39l38 -38h194l38 38v0zM427 340v237l-39 38l-38 -38v-193l77 -44v0zM130 384v193l-38 38l-39 -38v-237l77 44v0zM427 0v327l-77 -45v-205l77 -77v0zM130 77v205l-77 45v-327l77 77v0z" />
    <glyph glyph-name="O" unicode="O" 
d="M375 628l-38 39h-194l-38 -39l38 -38h194l38 38v0zM427 340v237l-39 38l-38 -38v-193l77 -44v0zM427 90v237l-77 -45v-192l38 -38l39 38v0zM130 384v193l-38 38l-39 -38v-237l77 44v0zM130 90v192l-77 45v-237l39 -38l38 38v0zM375 38l-38 39h-194l-38 -39l38 -38h194
l38 38v0z" />
    <glyph glyph-name="P" unicode="P" 
d="M427 340v237l-39 38l-38 -38v-193l77 -44v0zM375 628l-38 39h-270l76 -77h194l38 38v0zM130 384v193l-77 76v-313l77 44v0zM393 333l-66 39h-174l-66 -39l66 -38h174l66 38v0zM130 77v205l-77 45v-327l77 77v0z" />
    <glyph glyph-name="Q" unicode="Q" horiz-adv-x="481" 
d="M375 628l-38 39h-194l-38 -39l38 -38h194l38 38v0zM427 340v237l-39 38l-38 -38v-193l77 -44v0zM427 90v237l-77 -45v-192l38 -38l39 38v0zM130 384v193l-38 38l-39 -38v-237l77 44v0zM428 -14l-91 91h-98l187 -187l2 96v0zM130 90v192l-77 45v-237l39 -38l38 38v0z
M285 0l-76 77h-64l-38 -39l38 -38h140v0z" />
    <glyph glyph-name="R" unicode="R" horiz-adv-x="511" 
d="M427 401v176l-39 38l-38 -38v-193l38 -22l39 39v0zM375 628l-38 39h-270l76 -77h194l38 38v0zM130 384v193l-77 76v-313l77 44v0zM393 333l-66 39h-174l-66 -39l66 -38h174l66 38v0zM478 0l-119 279h-88l79 -195l128 -84v0zM130 77v205l-77 45v-327l77 77v0z" />
    <glyph glyph-name="S" unicode="S" horiz-adv-x="453" 
d="M413 667h-283l-38 -39l38 -38h207l76 77v0zM413 90v237l-76 -45v-192l38 -38l38 38v0zM380 333l-66 39h-174l-67 -39l67 -38h174l66 38v0zM117 384v193l-39 38l-38 -38v-237l77 44v0zM362 38l-39 39h-206l-77 -77h283l39 38v0z" />
    <glyph glyph-name="T" unicode="T" horiz-adv-x="487" 
d="M487 667h-237l44 -77h116l77 77v0zM237 667h-237l77 -77h115l45 77v0zM282 393v174l-39 66l-38 -66v-174l38 -66l39 66v0zM282 66v188l-39 66l-38 -66v-188l38 -66l39 66v0z" />
    <glyph glyph-name="U" unicode="U" 
d="M427 340v327l-77 -77v-206l77 -44v0zM130 384v206l-77 77v-327l77 44v0zM427 90v237l-77 -45v-192l38 -38l39 38v0zM130 90v192l-77 45v-237l39 -38l38 38v0zM375 38l-38 39h-194l-38 -39l38 -38h194l38 38v0z" />
    <glyph glyph-name="V" unicode="V" horiz-adv-x="466" 
d="M426 340v327l-77 -77v-206l77 -44v0zM117 384v206l-77 77v-327l77 44v0zM426 327l-88 -25l-92 -217l53 -67l127 309v0zM229 89l-97 217l-92 21l134 -314l55 76v0zM289 0l-52 69l-49 -69h101v0z" />
    <glyph glyph-name="W" unicode="W" horiz-adv-x="773" 
d="M720 340v327l-77 -77v-206l77 -44v0zM425 420v180l-38 67l-39 -67v-180l39 -67l38 67v0zM720 90v237l-77 -45v-192l39 -38l38 38v0zM130 384v206l-77 77v-327l77 44v0zM425 100v174l-38 66l-39 -66v-174l39 -67l38 67v0zM668 38l-38 39h-192l-45 -77h237l38 38v0zM130 90
v192l-77 45v-237l39 -38l38 38v0zM380 0l-44 77h-193l-38 -39l38 -38h237v0z" />
    <glyph glyph-name="X" unicode="X" horiz-adv-x="451" 
d="M418 609v58h-52l-128 -222v-96h31l149 260v0zM213 349v97l-128 221h-52v-58l150 -260h30v0zM418 0v67l-149 247h-31v-88l132 -226h48v0zM213 227v87h-30l-150 -247v-67h52l128 227v0z" />
    <glyph glyph-name="Y" unicode="Y" horiz-adv-x="453" 
d="M413 353v314l-76 -77v-206l65 -38l11 7v0zM117 384v206l-77 77v-314l12 -7l65 38v0zM380 333l-66 39h-174l-67 -39l67 -38h174l66 38v0zM265 38v237h-77v-237l39 -38l38 38v0z" />
    <glyph glyph-name="Z" unicode="Z" horiz-adv-x="418" 
d="M373 667h-366l78 -77h212l76 77v0zM390 558v102l-81 -81l-113 -182l52 -66l142 227v0zM243 322h-96l-127 -202v-105l78 76l145 231v0zM418 0l-78 77h-223l-76 -77h377v0z" />
    <glyph glyph-name="a" unicode="a" 
d="M427 340v313l-77 -76v-193l77 -44v0zM413 667h-346l76 -77h194l76 77v0zM130 384v193l-77 76v-313l77 44v0zM387 333l-67 39h-160l-67 -39l67 -38h160l67 38v0zM427 0v327l-77 -45v-205l77 -77v0zM130 77v205l-77 45v-327l77 77v0z" />
    <glyph glyph-name="b" unicode="b" 
d="M427 378v199l-39 38l-38 -38v-193l38 -22l39 16v0zM375 628l-38 39h-270l76 -77h194l38 38v0zM130 384v193l-77 76v-313l77 44v0zM400 333l-63 38h-194l-65 -38l65 -39h194l63 39v0zM427 90v198l-39 17l-38 -23v-192l38 -38l39 38v0zM130 90v191l-77 46v-314l77 77v0z
M375 38l-38 39h-194l-76 -77h270l38 38v0z" />
    <glyph glyph-name="c" unicode="c" horiz-adv-x="433" 
d="M413 667h-263l-40 -43l33 -34h194l76 77v0zM130 384v193l-43 33l-34 -40v-230l77 44v0zM413 0l-76 77h-194l-38 -39l38 -38h270v0zM130 90v192l-77 45v-237l39 -38l38 38v0z" />
    <glyph glyph-name="d" unicode="d" 
d="M427 340v237l-39 38l-38 -38v-193l77 -44v0zM375 628l-38 39h-270l76 -77h194l38 38v0zM130 384v193l-77 76v-313l77 44v0zM427 90v237l-77 -45v-192l38 -38l39 38v0zM130 90v192l-77 45v-314l77 77v0zM375 38l-38 39h-194l-76 -77h270l38 38v0z" />
    <glyph glyph-name="e" unicode="e" horiz-adv-x="440" 
d="M413 667h-346l76 -77h194l76 77v0zM130 384v193l-77 76v-313l77 44v0zM393 333l-66 39h-174l-66 -39l66 -38h174l66 38v0zM413 0l-76 77h-194l-76 -77h346v0zM130 90v192l-77 45v-314l77 77v0z" />
    <glyph glyph-name="f" unicode="f" horiz-adv-x="440" 
d="M413 667h-346l76 -77h194l76 77v0zM130 384v193l-77 76v-313l77 44v0zM393 333l-66 39h-174l-66 -39l66 -38h174l66 38v0zM130 77v205l-77 45v-327l77 77v0z" />
    <glyph glyph-name="g" unicode="g" horiz-adv-x="467" 
d="M347 667h-204l-38 -39l38 -38h127l77 77v0zM393 333l-66 39h-34l-66 -39l66 -38h34l66 38v0zM427 104v223l-77 -45v-192l31 -31l46 45v0zM130 384v193l-38 38l-39 -38v-237l77 44v0zM130 90v192l-77 45v-230l42 -42l35 35v0zM368 45l-31 32h-194l-35 -35l42 -42h173
l45 45v0z" />
    <glyph glyph-name="h" unicode="h" 
d="M427 340v327l-77 -77v-206l77 -44v0zM130 384v206l-77 77v-327l77 44v0zM387 333l-67 39h-160l-67 -39l67 -38h160l67 38v0zM427 0v327l-77 -45v-205l77 -77v0zM130 77v205l-77 45v-327l77 77v0z" />
    <glyph glyph-name="i" unicode="i" horiz-adv-x="183" 
d="M130 340v327l-77 -77v-206l77 -44v0zM130 0v327l-77 -45v-205l77 -77v0z" />
    <glyph glyph-name="j" unicode="j" horiz-adv-x="407" 
d="M353 340v327l-76 -77v-206l76 -44v0zM353 13v314l-76 -45v-192l76 -77v0zM340 0l-77 77h-146l-77 -77h300v0zM103 90v66l-76 31v-174l76 77v0z" />
    <glyph glyph-name="k" unicode="k" horiz-adv-x="483" 
d="M436 582v58h-58l-225 -197v-59h58l225 198v0zM130 384v206l-77 77v-327l77 44v0zM393 333l-66 39h-174l-66 -39l66 -38h174l66 38v0zM427 0v327l-77 -45v-205l77 -77v0zM130 77v205l-77 45v-327l77 77v0z" />
    <glyph glyph-name="l" unicode="l" horiz-adv-x="453" 
d="M130 384v206l-77 77v-327l77 44v0zM427 13v154l-77 -45v-32l77 -77v0zM413 0l-76 77h-194l-76 -77h346v0zM130 90v192l-77 45v-314l77 77v0z" />
    <glyph glyph-name="m" unicode="m" horiz-adv-x="773" 
d="M668 628l-38 39h-237l45 -77h192l38 38v0zM720 340v237l-38 38l-39 -38v-193l77 -44v0zM380 667h-237l-38 -39l38 -38h193l44 77v0zM425 393v174l-38 66l-39 -66v-174l39 -66l38 66v0zM720 0v327l-77 -45v-205l77 -77v0zM130 384v193l-38 38l-39 -38v-237l77 44v0z
M425 66v181l-38 66l-39 -66v-181l39 -66l38 66v0zM130 77v205l-77 45v-327l77 77v0z" />
    <glyph glyph-name="n" unicode="n" 
d="M375 628l-38 39h-194l-38 -39l38 -38h194l38 38v0zM427 340v237l-39 38l-38 -38v-193l77 -44v0zM130 384v193l-38 38l-39 -38v-237l77 44v0zM427 0v327l-77 -45v-205l77 -77v0zM130 77v205l-77 45v-327l77 77v0z" />
    <glyph glyph-name="o" unicode="o" 
d="M375 628l-38 39h-194l-38 -39l38 -38h194l38 38v0zM427 340v237l-39 38l-38 -38v-193l77 -44v0zM427 90v237l-77 -45v-192l38 -38l39 38v0zM130 384v193l-38 38l-39 -38v-237l77 44v0zM130 90v192l-77 45v-237l39 -38l38 38v0zM375 38l-38 39h-194l-38 -39l38 -38h194
l38 38v0z" />
    <glyph glyph-name="p" unicode="p" 
d="M427 340v237l-39 38l-38 -38v-193l77 -44v0zM375 628l-38 39h-270l76 -77h194l38 38v0zM130 384v193l-77 76v-313l77 44v0zM393 333l-66 39h-174l-66 -39l66 -38h174l66 38v0zM130 77v205l-77 45v-327l77 77v0z" />
    <glyph glyph-name="q" unicode="q" horiz-adv-x="481" 
d="M375 628l-38 39h-194l-38 -39l38 -38h194l38 38v0zM427 340v237l-39 38l-38 -38v-193l77 -44v0zM427 90v237l-77 -45v-192l38 -38l39 38v0zM130 384v193l-38 38l-39 -38v-237l77 44v0zM428 -14l-91 91h-98l187 -187l2 96v0zM130 90v192l-77 45v-237l39 -38l38 38v0z
M285 0l-76 77h-64l-38 -39l38 -38h140v0z" />
    <glyph glyph-name="r" unicode="r" horiz-adv-x="511" 
d="M427 401v176l-39 38l-38 -38v-193l38 -22l39 39v0zM375 628l-38 39h-270l76 -77h194l38 38v0zM130 384v193l-77 76v-313l77 44v0zM393 333l-66 39h-174l-66 -39l66 -38h174l66 38v0zM478 0l-119 279h-88l79 -195l128 -84v0zM130 77v205l-77 45v-327l77 77v0z" />
    <glyph glyph-name="s" unicode="s" horiz-adv-x="453" 
d="M413 667h-283l-38 -39l38 -38h207l76 77v0zM413 90v237l-76 -45v-192l38 -38l38 38v0zM380 333l-66 39h-174l-67 -39l67 -38h174l66 38v0zM117 384v193l-39 38l-38 -38v-237l77 44v0zM362 38l-39 39h-206l-77 -77h283l39 38v0z" />
    <glyph glyph-name="t" unicode="t" horiz-adv-x="487" 
d="M487 667h-237l44 -77h116l77 77v0zM237 667h-237l77 -77h115l45 77v0zM282 393v174l-39 66l-38 -66v-174l38 -66l39 66v0zM282 66v188l-39 66l-38 -66v-188l38 -66l39 66v0z" />
    <glyph glyph-name="u" unicode="u" 
d="M427 340v327l-77 -77v-206l77 -44v0zM130 384v206l-77 77v-327l77 44v0zM427 90v237l-77 -45v-192l38 -38l39 38v0zM130 90v192l-77 45v-237l39 -38l38 38v0zM375 38l-38 39h-194l-38 -39l38 -38h194l38 38v0z" />
    <glyph glyph-name="v" unicode="v" horiz-adv-x="466" 
d="M426 340v327l-77 -77v-206l77 -44v0zM117 384v206l-77 77v-327l77 44v0zM426 327l-88 -25l-92 -217l53 -67l127 309v0zM229 89l-97 217l-92 21l134 -314l55 76v0zM289 0l-52 69l-49 -69h101v0z" />
    <glyph glyph-name="w" unicode="w" horiz-adv-x="773" 
d="M720 340v327l-77 -77v-206l77 -44v0zM425 420v180l-38 67l-39 -67v-180l39 -67l38 67v0zM720 90v237l-77 -45v-192l39 -38l38 38v0zM130 384v206l-77 77v-327l77 44v0zM425 100v174l-38 66l-39 -66v-174l39 -67l38 67v0zM668 38l-38 39h-192l-45 -77h237l38 38v0zM130 90
v192l-77 45v-237l39 -38l38 38v0zM380 0l-44 77h-193l-38 -39l38 -38h237v0z" />
    <glyph glyph-name="x" unicode="x" horiz-adv-x="451" 
d="M418 609v58h-52l-128 -222v-96h31l149 260v0zM213 349v97l-128 221h-52v-58l150 -260h30v0zM418 0v67l-149 247h-31v-88l132 -226h48v0zM213 227v87h-30l-150 -247v-67h52l128 227v0z" />
    <glyph glyph-name="y" unicode="y" horiz-adv-x="453" 
d="M413 353v314l-76 -77v-206l65 -38l11 7v0zM117 384v206l-77 77v-314l12 -7l65 38v0zM380 333l-66 39h-174l-67 -39l67 -38h174l66 38v0zM265 38v237h-77v-237l39 -38l38 38v0z" />
    <glyph glyph-name="z" unicode="z" horiz-adv-x="418" 
d="M373 667h-366l78 -77h212l76 77v0zM390 558v102l-81 -81l-113 -182l52 -66l142 227v0zM243 322h-96l-127 -202v-105l78 76l145 231v0zM418 0l-78 77h-223l-76 -77h377v0z" />
    <glyph glyph-name="quotedblbase" unicode="&#x201e;" horiz-adv-x="393" 
d="M340 100h-79l-68 -169l56 -57l91 226v0zM200 100h-79l-68 -169l56 -57l91 226v0z" />
    <glyph glyph-name="OE" unicode="&#x152;" horiz-adv-x="737" 
d="M710 667h-302l39 -77h186l77 77v0zM427 384v193l-39 76l-38 -76v-237l77 44v0zM697 333l-67 39h-187l-66 -39l66 -38h187l67 38v0zM368 667h-225l-38 -39l38 -38h187l38 77v0zM710 0l-77 77h-186l-39 -77h302v0zM130 384v193l-38 38l-39 -38v-237l77 44v0zM427 90v192
l-77 45v-237l38 -77l39 77v0zM130 90v192l-77 45v-237l39 -38l38 38v0zM368 0l-38 77h-187l-38 -39l38 -38h225v0z" />
    <glyph glyph-name="quoteright" unicode="&#x2019;" horiz-adv-x="270" 
d="M216 667h-88l-75 -188l62 -63l101 251v0z" />
    <glyph glyph-name="quotedblleft" unicode="&#x201c;" horiz-adv-x="393" 
d="M340 634l-55 57l-92 -226h79l68 169v0zM200 634l-55 57l-92 -226h79l68 169v0z" />
    <glyph glyph-name="quotedblright" unicode="&#x201d;" horiz-adv-x="393" 
d="M340 667h-79l-68 -169l56 -57l91 226v0zM200 667h-79l-68 -169l56 -57l91 226v0z" />
    <glyph glyph-name="emdash" unicode="&#x2014;" horiz-adv-x="667" 
d="M667 333l-74 39h-522l-71 -39l71 -42h522l74 42v0z" />
    <glyph glyph-name="oe" unicode="&#x153;" horiz-adv-x="737" 
d="M710 667h-302l39 -77h186l77 77v0zM427 384v193l-39 76l-38 -76v-237l77 44v0zM697 333l-67 39h-187l-66 -39l66 -38h187l67 38v0zM368 667h-225l-38 -39l38 -38h187l38 77v0zM710 0l-77 77h-186l-39 -77h302v0zM130 384v193l-38 38l-39 -38v-237l77 44v0zM427 90v192
l-77 45v-237l38 -77l39 77v0zM130 90v192l-77 45v-237l39 -38l38 38v0zM368 0l-38 77h-187l-38 -39l38 -38h225v0z" />
    <glyph glyph-name="Ydieresis" unicode="&#x178;" horiz-adv-x="453" 
d="M360 720v93h-75v-93h75v0zM170 720v93h-76v-93h76v0zM413 353v314l-76 -77v-206l65 -38l11 7v0zM117 384v206l-77 77v-314l12 -7l65 38v0zM380 333l-66 39h-174l-67 -39l67 -38h174l66 38v0zM265 38v237h-77v-237l39 -38l38 38v0z" />
    <glyph glyph-name="exclamdown" unicode="&#xa1;" horiz-adv-x="210" 
d="M130 541v114l-77 22v-164l77 28v0zM130 49v324l-77 67v-466l77 75v0z" />
    <glyph glyph-name="cent" unicode="&#xa2;" horiz-adv-x="440" 
d="M297 617v53l-34 38l-33 -38v-53h67v0zM437 600h-263l-40 -43l33 -34h43l53 57l53 -57h45l76 77v0zM297 143v380l-34 37l-33 -37v-380l33 -35l34 35v0zM154 384v126l-43 34l-34 -41v-163l77 44v0zM437 67l-76 76h-45l-53 -56l-53 56h-43l-38 -38l38 -38h270v0zM154 157
v125l-77 45v-170l39 -39l38 39v0zM297 0v55h-67v-55l33 -34l34 34v0z" />
    <glyph glyph-name="sterling" unicode="&#xa3;" 
d="M434 667h-326l76 -77h174l76 77v0zM171 384v193l-77 76v-275l39 -16l38 22v0zM341 333l-66 39h-88l-53 -39l53 -38h88l66 38v0zM124 333l-53 39h-40l-39 -39l39 -38h40l53 38v0zM454 0l-76 77h-194l-76 -77h346v0zM171 90v192l-38 23l-39 -17v-275l77 77v0z" />
    <glyph glyph-name="guillemotleft" unicode="&#xab;" horiz-adv-x="434" 
d="M380 487h-86l-94 -164l54 -67l126 231v0zM234 487h-87l-94 -164l55 -67l126 231v0zM380 43l-119 206l-57 -71l88 -135h88v0zM234 43l-120 206l-56 -71l87 -135h89v0z" />
    <glyph glyph-name="periodcentered" unicode="&#xb7;" horiz-adv-x="77" 
d="M77 247v159l-77 -27v-115l77 -17v0z" />
    <glyph glyph-name="guillemotright" unicode="&#xbb;" horiz-adv-x="434" 
d="M376 352l-88 135h-88l120 -205l56 70v0zM230 352l-88 135h-89l120 -205l57 70v0zM380 207l-54 67l-126 -231h86l94 164v0zM234 207l-55 67l-126 -231h87l94 164v0z" />
    <glyph glyph-name="questiondown" unicode="&#xbf;" horiz-adv-x="440" 
d="M277 536v92l-77 39v-169l77 38v0zM277 317v83l-77 77v-84l77 -76v0zM277 295l-77 77h-47l-74 -39l64 -38h134v0zM413 0l-76 77h-194l-76 -77h346v0zM130 90v192l-77 44v-313l77 77v0z" />
    <glyph glyph-name="Agrave" unicode="&#xc0;" 
d="M344 720l-139 120h-96l142 -120h93v0zM427 340v313l-77 -76v-193l77 -44v0zM413 667h-346l76 -77h194l76 77v0zM130 384v193l-77 76v-313l77 44v0zM387 333l-67 39h-160l-67 -39l67 -38h160l67 38v0zM427 0v327l-77 -45v-205l77 -77v0zM130 77v205l-77 45v-327l77 77v0z
" />
    <glyph glyph-name="Aacute" unicode="&#xc1;" 
d="M371 840h-96l-139 -120h93l142 120v0zM427 340v313l-77 -76v-193l77 -44v0zM413 667h-346l76 -77h194l76 77v0zM130 384v193l-77 76v-313l77 44v0zM387 333l-67 39h-160l-67 -39l67 -38h160l67 38v0zM427 0v327l-77 -45v-205l77 -77v0zM130 77v205l-77 45v-327l77 77v0z
" />
    <glyph glyph-name="Acircumflex" unicode="&#xc2;" 
d="M400 720l-149 128v-86l42 -42h107v0zM229 762v86l-149 -128h107l42 42v0zM427 340v313l-77 -76v-193l77 -44v0zM413 667h-346l76 -77h194l76 77v0zM130 384v193l-77 76v-313l77 44v0zM387 333l-67 39h-160l-67 -39l67 -38h160l67 38v0zM427 0v327l-77 -45v-205l77 -77v0z
M130 77v205l-77 45v-327l77 77v0z" />
    <glyph glyph-name="Atilde" unicode="&#xc3;" 
d="M406 819l-51 23l-38 -45l51 -23l38 45v0zM358 762l-194 85l-42 -49l194 -85l42 49v0zM427 340v313l-77 -76v-193l77 -44v0zM163 764l-51 22l-38 -45l51 -22l38 45v0zM413 667h-346l76 -77h194l76 77v0zM130 384v193l-77 76v-313l77 44v0zM387 333l-67 39h-160l-67 -39
l67 -38h160l67 38v0zM427 0v327l-77 -45v-205l77 -77v0zM130 77v205l-77 45v-327l77 77v0z" />
    <glyph glyph-name="Adieresis" unicode="&#xc4;" 
d="M373 720v93h-75v-93h75v0zM184 720v93h-77v-93h77v0zM427 340v313l-77 -76v-193l77 -44v0zM413 667h-346l76 -77h194l76 77v0zM130 384v193l-77 76v-313l77 44v0zM387 333l-67 39h-160l-67 -39l67 -38h160l67 38v0zM427 0v327l-77 -45v-205l77 -77v0zM130 77v205l-77 45
v-327l77 77v0z" />
    <glyph glyph-name="Aring" unicode="&#xc5;" 
d="M317 893h-154l54 -53h46l54 53v0zM327 730v153l-54 -53v-47l54 -53v0zM207 783v47l-54 53v-153l54 53v0zM317 720l-54 53h-46l-54 -53h154v0zM427 340v313l-77 -76v-193l77 -44v0zM413 667h-346l76 -77h194l76 77v0zM130 384v193l-77 76v-313l77 44v0zM387 333l-67 39
h-160l-67 -39l67 -38h160l67 38v0zM427 0v327l-77 -45v-205l77 -77v0zM130 77v205l-77 45v-327l77 77v0z" />
    <glyph glyph-name="AE" unicode="&#xc6;" horiz-adv-x="737" 
d="M710 667h-302l32 -77h193l77 77v0zM427 384v193l-39 76l-38 -76v-199l38 -16l39 22v0zM697 333l-67 39h-187l-53 -39l53 -38h187l67 38v0zM369 667h-302l76 -77h194l32 77v0zM130 384v193l-77 76v-313l77 44v0zM710 0l-77 77h-193l-77 -77h347v0zM380 333l-53 39h-174
l-66 -39l66 -38h174l53 38v0zM427 90v192l-39 23l-38 -17v-275l77 77v0zM130 77v205l-77 45v-327l77 77v0z" />
    <glyph glyph-name="Ccedilla" unicode="&#xc7;" horiz-adv-x="433" 
d="M413 667h-263l-40 -43l33 -34h194l76 77v0zM130 384v193l-43 33l-34 -40v-230l77 44v0zM413 0l-76 77h-194l-38 -39l38 -38h270v0zM130 90v192l-77 45v-237l39 -38l38 38v0zM299 -20h-97l-68 -132l50 -71l115 203v0z" />
    <glyph glyph-name="Egrave" unicode="&#xc8;" horiz-adv-x="440" 
d="M324 720l-139 120h-96l142 -120h93v0zM413 667h-346l76 -77h194l76 77v0zM130 384v193l-77 76v-313l77 44v0zM393 333l-66 39h-174l-66 -39l66 -38h174l66 38v0zM413 0l-76 77h-194l-76 -77h346v0zM130 90v192l-77 45v-314l77 77v0z" />
    <glyph glyph-name="Eacute" unicode="&#xc9;" horiz-adv-x="440" 
d="M351 840h-96l-139 -120h93l142 120v0zM413 667h-346l76 -77h194l76 77v0zM130 384v193l-77 76v-313l77 44v0zM393 333l-66 39h-174l-66 -39l66 -38h174l66 38v0zM413 0l-76 77h-194l-76 -77h346v0zM130 90v192l-77 45v-314l77 77v0z" />
    <glyph glyph-name="Ecircumflex" unicode="&#xca;" horiz-adv-x="440" 
d="M380 720l-149 128v-86l42 -42h107v0zM209 762v86l-149 -128h107l42 42v0zM413 667h-346l76 -77h194l76 77v0zM130 384v193l-77 76v-313l77 44v0zM393 333l-66 39h-174l-66 -39l66 -38h174l66 38v0zM413 0l-76 77h-194l-76 -77h346v0zM130 90v192l-77 45v-314l77 77v0z
" />
    <glyph glyph-name="Edieresis" unicode="&#xcb;" horiz-adv-x="440" 
d="M353 720v93h-75v-93h75v0zM164 720v93h-77v-93h77v0zM413 667h-346l76 -77h194l76 77v0zM130 384v193l-77 76v-313l77 44v0zM393 333l-66 39h-174l-66 -39l66 -38h174l66 38v0zM413 0l-76 77h-194l-76 -77h346v0zM130 90v192l-77 45v-314l77 77v0z" />
    <glyph glyph-name="Igrave" unicode="&#xcc;" horiz-adv-x="183" 
d="M196 720l-139 120h-96l142 -120h93v0zM130 340v327l-77 -77v-206l77 -44v0zM130 0v327l-77 -45v-205l77 -77v0z" />
    <glyph glyph-name="Iacute" unicode="&#xcd;" horiz-adv-x="183" 
d="M223 840h-97l-138 -120h92l143 120v0zM130 340v327l-77 -77v-206l77 -44v0zM130 0v327l-77 -45v-205l77 -77v0z" />
    <glyph glyph-name="Icircumflex" unicode="&#xce;" horiz-adv-x="183" 
d="M251 720l-149 128v-86l43 -42h106v0zM81 762v86l-149 -128h107l42 42v0zM130 340v327l-77 -77v-206l77 -44v0zM130 0v327l-77 -45v-205l77 -77v0z" />
    <glyph glyph-name="Idieresis" unicode="&#xcf;" horiz-adv-x="183" 
d="M185 720v93h-69v-93h69v0zM69 720v93h-70v-93h70v0zM130 340v327l-77 -77v-206l77 -44v0zM130 0v327l-77 -45v-205l77 -77v0z" />
    <glyph glyph-name="Ntilde" unicode="&#xd1;" 
d="M406 819l-51 23l-38 -45l51 -23l38 45v0zM358 762l-194 85l-42 -49l194 -85l42 49v0zM163 764l-51 22l-38 -45l51 -22l38 45v0zM375 628l-38 39h-194l-38 -39l38 -38h194l38 38v0zM427 340v237l-39 38l-38 -38v-193l77 -44v0zM130 384v193l-38 38l-39 -38v-237l77 44v0z
M427 0v327l-77 -45v-205l77 -77v0zM130 77v205l-77 45v-327l77 77v0z" />
    <glyph glyph-name="Ograve" unicode="&#xd2;" 
d="M344 720l-139 120h-96l142 -120h93v0zM375 628l-38 39h-194l-38 -39l38 -38h194l38 38v0zM427 340v237l-39 38l-38 -38v-193l77 -44v0zM427 90v237l-77 -45v-192l38 -38l39 38v0zM130 384v193l-38 38l-39 -38v-237l77 44v0zM130 90v192l-77 45v-237l39 -38l38 38v0z
M375 38l-38 39h-194l-38 -39l38 -38h194l38 38v0z" />
    <glyph glyph-name="Oacute" unicode="&#xd3;" 
d="M371 840h-96l-139 -120h93l142 120v0zM375 628l-38 39h-194l-38 -39l38 -38h194l38 38v0zM427 340v237l-39 38l-38 -38v-193l77 -44v0zM427 90v237l-77 -45v-192l38 -38l39 38v0zM130 384v193l-38 38l-39 -38v-237l77 44v0zM130 90v192l-77 45v-237l39 -38l38 38v0z
M375 38l-38 39h-194l-38 -39l38 -38h194l38 38v0z" />
    <glyph glyph-name="Ocircumflex" unicode="&#xd4;" 
d="M400 720l-149 128v-86l42 -42h107v0zM229 762v86l-149 -128h107l42 42v0zM375 628l-38 39h-194l-38 -39l38 -38h194l38 38v0zM427 340v237l-39 38l-38 -38v-193l77 -44v0zM427 90v237l-77 -45v-192l38 -38l39 38v0zM130 384v193l-38 38l-39 -38v-237l77 44v0zM130 90v192
l-77 45v-237l39 -38l38 38v0zM375 38l-38 39h-194l-38 -39l38 -38h194l38 38v0z" />
    <glyph glyph-name="Otilde" unicode="&#xd5;" 
d="M406 819l-51 23l-38 -45l51 -23l38 45v0zM358 762l-194 85l-42 -49l194 -85l42 49v0zM163 764l-51 22l-38 -45l51 -22l38 45v0zM375 628l-38 39h-194l-38 -39l38 -38h194l38 38v0zM427 340v237l-39 38l-38 -38v-193l77 -44v0zM427 90v237l-77 -45v-192l38 -38l39 38v0z
M130 384v193l-38 38l-39 -38v-237l77 44v0zM130 90v192l-77 45v-237l39 -38l38 38v0zM375 38l-38 39h-194l-38 -39l38 -38h194l38 38v0z" />
    <glyph glyph-name="Odieresis" unicode="&#xd6;" 
d="M373 720v93h-75v-93h75v0zM184 720v93h-77v-93h77v0zM375 628l-38 39h-194l-38 -39l38 -38h194l38 38v0zM427 340v237l-39 38l-38 -38v-193l77 -44v0zM427 90v237l-77 -45v-192l38 -38l39 38v0zM130 384v193l-38 38l-39 -38v-237l77 44v0zM130 90v192l-77 45v-237l39 -38
l38 38v0zM375 38l-38 39h-194l-38 -39l38 -38h194l38 38v0z" />
    <glyph glyph-name="Oslash" unicode="&#xd8;" 
d="M494 725l-7 55l-57 -26l-50 -93l50 -48l64 112v0zM375 628l-38 39h-194l-38 -39l38 -38h194l38 38v0zM427 340v237l-39 38l-38 -38v-193l77 -44v0zM427 90v237l-77 -45v-192l38 -38l39 38v0zM332 441v129l-187 -332v-137l187 340v0zM130 384v193l-38 38l-39 -38v-237
l77 44v0zM130 90v192l-77 45v-237l39 -38l38 38v0zM375 38l-38 39h-194l-38 -39l38 -38h194l38 38v0zM97 11l-49 50l-62 -108l8 -59l51 21l52 96v0z" />
    <glyph glyph-name="Ugrave" unicode="&#xd9;" 
d="M344 720l-139 120h-96l142 -120h93v0zM427 340v327l-77 -77v-206l77 -44v0zM130 384v206l-77 77v-327l77 44v0zM427 90v237l-77 -45v-192l38 -38l39 38v0zM130 90v192l-77 45v-237l39 -38l38 38v0zM375 38l-38 39h-194l-38 -39l38 -38h194l38 38v0z" />
    <glyph glyph-name="Uacute" unicode="&#xda;" 
d="M371 840h-96l-139 -120h93l142 120v0zM427 340v327l-77 -77v-206l77 -44v0zM130 384v206l-77 77v-327l77 44v0zM427 90v237l-77 -45v-192l38 -38l39 38v0zM130 90v192l-77 45v-237l39 -38l38 38v0zM375 38l-38 39h-194l-38 -39l38 -38h194l38 38v0z" />
    <glyph glyph-name="Ucircumflex" unicode="&#xdb;" 
d="M400 720l-149 128v-86l42 -42h107v0zM229 762v86l-149 -128h107l42 42v0zM427 340v327l-77 -77v-206l77 -44v0zM130 384v206l-77 77v-327l77 44v0zM427 90v237l-77 -45v-192l38 -38l39 38v0zM130 90v192l-77 45v-237l39 -38l38 38v0zM375 38l-38 39h-194l-38 -39l38 -38
h194l38 38v0z" />
    <glyph glyph-name="Udieresis" unicode="&#xdc;" 
d="M373 720v93h-75v-93h75v0zM184 720v93h-77v-93h77v0zM427 340v327l-77 -77v-206l77 -44v0zM130 384v206l-77 77v-327l77 44v0zM427 90v237l-77 -45v-192l38 -38l39 38v0zM130 90v192l-77 45v-237l39 -38l38 38v0zM375 38l-38 39h-194l-38 -39l38 -38h194l38 38v0z" />
    <glyph glyph-name="germandbls" unicode="&#xdf;" horiz-adv-x="907" 
d="M867 667h-284l-38 -39l38 -38h207l77 77v0zM867 90v237l-77 -45v-192l38 -38l39 38v0zM833 333l-66 39h-174l-66 -39l66 -38h174l66 38v0zM570 384v193l-38 38l-39 -38v-237l77 44v0zM413 667h-283l-38 -39l38 -38h207l76 77v0zM815 38l-38 39h-207l-77 -77h284l38 38v0z
M413 90v237l-76 -45v-192l38 -38l38 38v0zM380 333l-66 39h-174l-67 -39l67 -38h174l66 38v0zM117 384v193l-39 38l-38 -38v-237l77 44v0zM362 38l-39 39h-206l-77 -77h283l39 38v0z" />
    <glyph glyph-name="agrave" unicode="&#xe0;" 
d="M344 720l-139 120h-96l142 -120h93v0zM427 340v313l-77 -76v-193l77 -44v0zM413 667h-346l76 -77h194l76 77v0zM130 384v193l-77 76v-313l77 44v0zM387 333l-67 39h-160l-67 -39l67 -38h160l67 38v0zM427 0v327l-77 -45v-205l77 -77v0zM130 77v205l-77 45v-327l77 77v0z
" />
    <glyph glyph-name="aacute" unicode="&#xe1;" 
d="M371 840h-96l-139 -120h93l142 120v0zM427 340v313l-77 -76v-193l77 -44v0zM413 667h-346l76 -77h194l76 77v0zM130 384v193l-77 76v-313l77 44v0zM387 333l-67 39h-160l-67 -39l67 -38h160l67 38v0zM427 0v327l-77 -45v-205l77 -77v0zM130 77v205l-77 45v-327l77 77v0z
" />
    <glyph glyph-name="acircumflex" unicode="&#xe2;" 
d="M400 720l-149 128v-86l42 -42h107v0zM229 762v86l-149 -128h107l42 42v0zM427 340v313l-77 -76v-193l77 -44v0zM413 667h-346l76 -77h194l76 77v0zM130 384v193l-77 76v-313l77 44v0zM387 333l-67 39h-160l-67 -39l67 -38h160l67 38v0zM427 0v327l-77 -45v-205l77 -77v0z
M130 77v205l-77 45v-327l77 77v0z" />
    <glyph glyph-name="atilde" unicode="&#xe3;" 
d="M406 819l-51 23l-38 -45l51 -23l38 45v0zM358 762l-194 85l-42 -49l194 -85l42 49v0zM427 340v313l-77 -76v-193l77 -44v0zM163 764l-51 22l-38 -45l51 -22l38 45v0zM413 667h-346l76 -77h194l76 77v0zM130 384v193l-77 76v-313l77 44v0zM387 333l-67 39h-160l-67 -39
l67 -38h160l67 38v0zM427 0v327l-77 -45v-205l77 -77v0zM130 77v205l-77 45v-327l77 77v0z" />
    <glyph glyph-name="adieresis" unicode="&#xe4;" 
d="M373 720v93h-75v-93h75v0zM184 720v93h-77v-93h77v0zM427 340v313l-77 -76v-193l77 -44v0zM413 667h-346l76 -77h194l76 77v0zM130 384v193l-77 76v-313l77 44v0zM387 333l-67 39h-160l-67 -39l67 -38h160l67 38v0zM427 0v327l-77 -45v-205l77 -77v0zM130 77v205l-77 45
v-327l77 77v0z" />
    <glyph glyph-name="aring" unicode="&#xe5;" 
d="M317 893h-154l54 -53h46l54 53v0zM327 730v153l-54 -53v-47l54 -53v0zM207 783v47l-54 53v-153l54 53v0zM317 720l-54 53h-46l-54 -53h154v0zM427 340v313l-77 -76v-193l77 -44v0zM413 667h-346l76 -77h194l76 77v0zM130 384v193l-77 76v-313l77 44v0zM387 333l-67 39
h-160l-67 -39l67 -38h160l67 38v0zM427 0v327l-77 -45v-205l77 -77v0zM130 77v205l-77 45v-327l77 77v0z" />
    <glyph glyph-name="ae" unicode="&#xe6;" horiz-adv-x="737" 
d="M710 667h-302l32 -77h193l77 77v0zM427 384v193l-39 76l-38 -76v-199l38 -16l39 22v0zM697 333l-67 39h-187l-53 -39l53 -38h187l67 38v0zM369 667h-302l76 -77h194l32 77v0zM130 384v193l-77 76v-313l77 44v0zM710 0l-77 77h-193l-77 -77h347v0zM380 333l-53 39h-174
l-66 -39l66 -38h174l53 38v0zM427 90v192l-39 23l-38 -17v-275l77 77v0zM130 77v205l-77 45v-327l77 77v0z" />
    <glyph glyph-name="ccedilla" unicode="&#xe7;" horiz-adv-x="433" 
d="M413 667h-263l-40 -43l33 -34h194l76 77v0zM130 384v193l-43 33l-34 -40v-230l77 44v0zM413 0l-76 77h-194l-38 -39l38 -38h270v0zM130 90v192l-77 45v-237l39 -38l38 38v0zM299 -20h-97l-68 -132l50 -71l115 203v0z" />
    <glyph glyph-name="egrave" unicode="&#xe8;" horiz-adv-x="440" 
d="M324 720l-139 120h-96l142 -120h93v0zM413 667h-346l76 -77h194l76 77v0zM130 384v193l-77 76v-313l77 44v0zM393 333l-66 39h-174l-66 -39l66 -38h174l66 38v0zM413 0l-76 77h-194l-76 -77h346v0zM130 90v192l-77 45v-314l77 77v0z" />
    <glyph glyph-name="eacute" unicode="&#xe9;" horiz-adv-x="440" 
d="M351 840h-96l-139 -120h93l142 120v0zM413 667h-346l76 -77h194l76 77v0zM130 384v193l-77 76v-313l77 44v0zM393 333l-66 39h-174l-66 -39l66 -38h174l66 38v0zM413 0l-76 77h-194l-76 -77h346v0zM130 90v192l-77 45v-314l77 77v0z" />
    <glyph glyph-name="ecircumflex" unicode="&#xea;" horiz-adv-x="440" 
d="M380 720l-149 128v-86l42 -42h107v0zM209 762v86l-149 -128h107l42 42v0zM413 667h-346l76 -77h194l76 77v0zM130 384v193l-77 76v-313l77 44v0zM393 333l-66 39h-174l-66 -39l66 -38h174l66 38v0zM413 0l-76 77h-194l-76 -77h346v0zM130 90v192l-77 45v-314l77 77v0z
" />
    <glyph glyph-name="edieresis" unicode="&#xeb;" horiz-adv-x="440" 
d="M353 720v93h-75v-93h75v0zM164 720v93h-77v-93h77v0zM413 667h-346l76 -77h194l76 77v0zM130 384v193l-77 76v-313l77 44v0zM393 333l-66 39h-174l-66 -39l66 -38h174l66 38v0zM413 0l-76 77h-194l-76 -77h346v0zM130 90v192l-77 45v-314l77 77v0z" />
    <glyph glyph-name="igrave" unicode="&#xec;" horiz-adv-x="183" 
d="M196 720l-139 120h-96l142 -120h93v0zM130 340v327l-77 -77v-206l77 -44v0zM130 0v327l-77 -45v-205l77 -77v0z" />
    <glyph glyph-name="iacute" unicode="&#xed;" horiz-adv-x="183" 
d="M223 840h-97l-138 -120h92l143 120v0zM130 340v327l-77 -77v-206l77 -44v0zM130 0v327l-77 -45v-205l77 -77v0z" />
    <glyph glyph-name="icircumflex" unicode="&#xee;" horiz-adv-x="183" 
d="M251 720l-149 128v-86l43 -42h106v0zM81 762v86l-149 -128h107l42 42v0zM130 340v327l-77 -77v-206l77 -44v0zM130 0v327l-77 -45v-205l77 -77v0z" />
    <glyph glyph-name="idieresis" unicode="&#xef;" horiz-adv-x="183" 
d="M185 720v93h-69v-93h69v0zM69 720v93h-70v-93h70v0zM130 340v327l-77 -77v-206l77 -44v0zM130 0v327l-77 -45v-205l77 -77v0z" />
    <glyph glyph-name="ntilde" unicode="&#xf1;" 
d="M406 819l-51 23l-38 -45l51 -23l38 45v0zM358 762l-194 85l-42 -49l194 -85l42 49v0zM163 764l-51 22l-38 -45l51 -22l38 45v0zM375 628l-38 39h-194l-38 -39l38 -38h194l38 38v0zM427 340v237l-39 38l-38 -38v-193l77 -44v0zM130 384v193l-38 38l-39 -38v-237l77 44v0z
M427 0v327l-77 -45v-205l77 -77v0zM130 77v205l-77 45v-327l77 77v0z" />
    <glyph glyph-name="ograve" unicode="&#xf2;" 
d="M344 720l-139 120h-96l142 -120h93v0zM375 628l-38 39h-194l-38 -39l38 -38h194l38 38v0zM427 340v237l-39 38l-38 -38v-193l77 -44v0zM427 90v237l-77 -45v-192l38 -38l39 38v0zM130 384v193l-38 38l-39 -38v-237l77 44v0zM130 90v192l-77 45v-237l39 -38l38 38v0z
M375 38l-38 39h-194l-38 -39l38 -38h194l38 38v0z" />
    <glyph glyph-name="oacute" unicode="&#xf3;" 
d="M371 840h-96l-139 -120h93l142 120v0zM375 628l-38 39h-194l-38 -39l38 -38h194l38 38v0zM427 340v237l-39 38l-38 -38v-193l77 -44v0zM427 90v237l-77 -45v-192l38 -38l39 38v0zM130 384v193l-38 38l-39 -38v-237l77 44v0zM130 90v192l-77 45v-237l39 -38l38 38v0z
M375 38l-38 39h-194l-38 -39l38 -38h194l38 38v0z" />
    <glyph glyph-name="ocircumflex" unicode="&#xf4;" 
d="M400 720l-149 128v-86l42 -42h107v0zM229 762v86l-149 -128h107l42 42v0zM375 628l-38 39h-194l-38 -39l38 -38h194l38 38v0zM427 340v237l-39 38l-38 -38v-193l77 -44v0zM427 90v237l-77 -45v-192l38 -38l39 38v0zM130 384v193l-38 38l-39 -38v-237l77 44v0zM130 90v192
l-77 45v-237l39 -38l38 38v0zM375 38l-38 39h-194l-38 -39l38 -38h194l38 38v0z" />
    <glyph glyph-name="otilde" unicode="&#xf5;" 
d="M406 819l-51 23l-38 -45l51 -23l38 45v0zM358 762l-194 85l-42 -49l194 -85l42 49v0zM163 764l-51 22l-38 -45l51 -22l38 45v0zM375 628l-38 39h-194l-38 -39l38 -38h194l38 38v0zM427 340v237l-39 38l-38 -38v-193l77 -44v0zM427 90v237l-77 -45v-192l38 -38l39 38v0z
M130 384v193l-38 38l-39 -38v-237l77 44v0zM130 90v192l-77 45v-237l39 -38l38 38v0zM375 38l-38 39h-194l-38 -39l38 -38h194l38 38v0z" />
    <glyph glyph-name="odieresis" unicode="&#xf6;" 
d="M373 720v93h-75v-93h75v0zM184 720v93h-77v-93h77v0zM375 628l-38 39h-194l-38 -39l38 -38h194l38 38v0zM427 340v237l-39 38l-38 -38v-193l77 -44v0zM427 90v237l-77 -45v-192l38 -38l39 38v0zM130 384v193l-38 38l-39 -38v-237l77 44v0zM130 90v192l-77 45v-237l39 -38
l38 38v0zM375 38l-38 39h-194l-38 -39l38 -38h194l38 38v0z" />
    <glyph glyph-name="oslash" unicode="&#xf8;" 
d="M494 725l-7 55l-57 -26l-50 -93l50 -48l64 112v0zM375 628l-38 39h-194l-38 -39l38 -38h194l38 38v0zM427 340v237l-39 38l-38 -38v-193l77 -44v0zM427 90v237l-77 -45v-192l38 -38l39 38v0zM332 441v129l-187 -332v-137l187 340v0zM130 384v193l-38 38l-39 -38v-237
l77 44v0zM130 90v192l-77 45v-237l39 -38l38 38v0zM375 38l-38 39h-194l-38 -39l38 -38h194l38 38v0zM97 11l-49 50l-62 -108l8 -59l51 21l52 96v0z" />
    <glyph glyph-name="ugrave" unicode="&#xf9;" 
d="M344 720l-139 120h-96l142 -120h93v0zM427 340v327l-77 -77v-206l77 -44v0zM130 384v206l-77 77v-327l77 44v0zM427 90v237l-77 -45v-192l38 -38l39 38v0zM130 90v192l-77 45v-237l39 -38l38 38v0zM375 38l-38 39h-194l-38 -39l38 -38h194l38 38v0z" />
    <glyph glyph-name="uacute" unicode="&#xfa;" 
d="M371 840h-96l-139 -120h93l142 120v0zM427 340v327l-77 -77v-206l77 -44v0zM130 384v206l-77 77v-327l77 44v0zM427 90v237l-77 -45v-192l38 -38l39 38v0zM130 90v192l-77 45v-237l39 -38l38 38v0zM375 38l-38 39h-194l-38 -39l38 -38h194l38 38v0z" />
    <glyph glyph-name="ucircumflex" unicode="&#xfb;" 
d="M400 720l-149 128v-86l42 -42h107v0zM229 762v86l-149 -128h107l42 42v0zM427 340v327l-77 -77v-206l77 -44v0zM130 384v206l-77 77v-327l77 44v0zM427 90v237l-77 -45v-192l38 -38l39 38v0zM130 90v192l-77 45v-237l39 -38l38 38v0zM375 38l-38 39h-194l-38 -39l38 -38
h194l38 38v0z" />
    <glyph glyph-name="udieresis" unicode="&#xfc;" 
d="M373 720v93h-75v-93h75v0zM184 720v93h-77v-93h77v0zM427 340v327l-77 -77v-206l77 -44v0zM130 384v206l-77 77v-327l77 44v0zM427 90v237l-77 -45v-192l38 -38l39 38v0zM130 90v192l-77 45v-237l39 -38l38 38v0zM375 38l-38 39h-194l-38 -39l38 -38h194l38 38v0z" />
    <glyph glyph-name="ydieresis" unicode="&#xff;" horiz-adv-x="453" 
d="M360 720v93h-75v-93h75v0zM170 720v93h-76v-93h76v0zM413 353v314l-76 -77v-206l65 -38l11 7v0zM117 384v206l-77 77v-314l12 -7l65 38v0zM380 333l-66 39h-174l-67 -39l67 -38h174l66 38v0zM265 38v237h-77v-237l39 -38l38 38v0z" />
    <glyph glyph-name="nonbreakingspace" unicode="&#xa0;" horiz-adv-x="250" 
 />
  </font>
</defs>
</svg>
